<svg xmlns="http://www.w3.org/2000/svg" width="13" height="48" fill="none"><path fill="#fff" d="M.84 3.776q0-.976.352-1.824A3.6 3.6 0 0 1 2.28.512l.928.944Q2.104 2.32 2.104 3.84q0 .705.256 1.12.255.416.848.416.48 0 .704-.432.24-.432.448-1.536.144-.72.384-1.296.24-.56.688-.896.465-.336 1.2-.336.705 0 1.2.384.512.384.784 1.008.272.64.272 1.408 0 1.872-1.2 2.848l-.976-.848q.464-.353.672-.864.225-.512.224-1.12 0-.688-.288-1.024-.272-.336-.656-.336a.7.7 0 0 0-.656.384q-.209.384-.432 1.392a6.6 6.6 0 0 1-.464 1.408q-.288.624-.752.96-.465.352-1.2.352-1.104 0-1.712-.848Q.84 5.152.84 3.776M.824 13.903q0-1.056.496-1.888.511-.816 1.408-1.296.912-.464 2.112-.464t2.112.464q.912.48 1.408 1.296.512.832.512 1.888 0 .88-.368 1.616a3.2 3.2 0 0 1-1.04 1.232l-.848-1.136q.945-.591.944-1.712 0-.975-.72-1.6-.72-.608-2-.608-1.264 0-1.984.608-.72.625-.72 1.6 0 1.12.928 1.728l-.832 1.12a3.35 3.35 0 0 1-1.056-1.232 3.7 3.7 0 0 1-.352-1.616M1 20.723h7.68v1.313l-1.2.08q.624.32 1.008.96.384.656.384 1.408 0 .255-.032.48t-.064.384H7.384q.048-.176.08-.448t.032-.592q0-.896-.592-1.52-.575-.624-1.52-.624H1zM.824 32.259q0-1.056.496-1.888a3.64 3.64 0 0 1 1.424-1.296q.912-.464 2.112-.464t2.096.464q.912.48 1.408 1.296.512.832.512 1.888T8.36 34.13q-.495.833-1.408 1.296-.896.48-2.096.48t-2.112-.48A3.5 3.5 0 0 1 1.32 34.13q-.496-.816-.496-1.872m1.312 0q0 .977.72 1.584.735.624 2 .624 1.264 0 1.984-.624.72-.608.72-1.584 0-.975-.72-1.6-.72-.608-1.984-.608t-2 .608q-.72.624-.72 1.6M1 39.876h11.472v1.44H1zm0 5.818h11.472v1.44H1z"/></svg>